<svg id="Layer_1" data-name="Layer 1" xmlns="http://www.w3.org/2000/svg" viewBox="0 0 626.29 959"><rect x="268.79" y="10" width="89.36" height="939" rx="32.5" style="stroke:#000;stroke-miterlimit:10;stroke-width:20px"/><rect x="491.49" y="420.54" width="44.92" height="604.92" rx="16.34" transform="translate(1036.83 177.05) rotate(90)" style="stroke:#000;stroke-miterlimit:10;stroke-width:20px"/><rect x="475.79" y="187.4" width="73.57" height="604.92" rx="16.34" transform="translate(802.32 -54.72) rotate(90)" style="stroke:#000;stroke-miterlimit:10;stroke-width:20px"/><rect x="745.25" y="527.31" width="44.92" height="84.11" rx="16.34" transform="translate(1335.32 1106.73) rotate(180)" style="stroke:#000;stroke-miterlimit:10;stroke-width:20px"/><rect x="231.65" y="526.74" width="44.92" height="84.11" rx="16.34" transform="translate(308.11 1105.6) rotate(180)" style="stroke:#000;stroke-miterlimit:10;stroke-width:20px"/><rect x="483.61" y="14.6" width="56.7" height="466.2" rx="16.34" transform="translate(559.54 -296.26) rotate(90)" style="stroke:#000;stroke-miterlimit:10;stroke-width:20px"/><rect x="685.06" y="276.57" width="34.62" height="64.82" rx="12.59" transform="translate(1204.63 585.95) rotate(-180)" style="stroke:#000;stroke-miterlimit:10;stroke-width:20px"/><rect x="295.45" y="276.13" width="34.62" height="64.82" rx="12.59" transform="translate(425.41 585.08) rotate(-180)" style="stroke:#000;stroke-miterlimit:10;stroke-width:20px"/></svg>